<svg width="321" height="145" viewBox="0 0 321 145" fill="none" xmlns="http://www.w3.org/2000/svg">
<g clip-path="url(#clip0_183_49215)">
<path d="M263.721 28.0954C262.622 30.5876 261.514 33.0763 260.433 35.5787C258.444 40.1697 256.53 44.798 254.471 49.3551C253.44 51.637 251.522 52.661 249.02 52.461C246.673 52.2711 246.166 51.4845 246.945 49.2771C247.113 48.8058 247.264 48.3311 247.455 47.7716C243.804 46.0526 243.442 42.611 243.002 39.2779C242.71 37.057 242.666 34.7988 242.474 32.0286C241.41 34.4767 240.567 36.5586 239.613 38.5862C237.94 42.1499 236.194 45.6728 234.505 49.2262C233.87 50.5622 232.856 51.3149 231.408 51.4641C228.117 51.8032 224.698 50.9386 224.147 46.2831C223.344 39.4678 225.215 33.1645 227.358 26.9019C228.95 22.243 231.126 17.8724 234.609 14.2986C237.121 11.7183 240.782 10.9384 243.264 12.5965C244.093 13.1492 244.688 14.0714 245.38 14.8174C247.321 12.1082 248.137 11.8132 250.884 12.6541C252.026 13.0034 252.302 13.5968 252.066 14.7733C251.24 18.9608 250.36 23.145 249.796 27.3698C249.178 31.9947 248.943 36.6637 249.937 41.292C250.065 41.882 250.276 42.4516 250.592 43.5061C252.056 40.6681 253.366 38.2166 254.595 35.7245C257.857 29.1194 261.088 22.494 264.329 15.8787C264.352 15.8278 264.406 15.7804 264.409 15.7329C264.523 13.4815 265.638 12.1455 267.902 11.9794C268.775 11.915 269.81 11.8031 270.498 12.1998C271.015 12.4948 271.412 13.6069 271.321 14.2851C270.586 19.8831 270.347 25.4879 270.911 31.1097C271.022 32.2117 271.341 33.29 271.657 34.8259C272.191 33.6697 272.564 32.8559 272.943 32.0456C276.147 25.1658 279.335 18.2827 282.569 11.4165C283.019 10.457 283.664 9.58555 284.262 8.70397C286.035 6.09991 290.018 5.14034 292.738 6.75431C293.215 7.03913 293.726 7.93767 293.629 8.43271C292.571 13.8409 291.791 19.2524 291.533 24.7929C291.271 30.4079 291.375 35.9211 292.833 41.3327C293.36 43.2891 294.424 45.0964 295.278 47.0528C293.269 48.4701 289.974 47.3614 288.315 44.3233C286.199 40.4545 285.363 36.2127 284.96 31.8828C284.671 28.7735 284.587 25.6405 284.167 22.4126C282.995 25.1658 281.796 27.9089 280.661 30.6757C278.844 35.0938 277.031 39.5153 275.294 43.9673C274.119 46.9748 271.036 47.7954 268.167 47.0359C266.955 46.7137 266.273 45.9203 267.072 44.6488C267.973 43.2111 267.865 41.9871 267.019 40.4782C264.913 36.7247 264.627 32.4592 263.727 28.0954H263.721ZM230.192 44.486C230.39 44.5708 230.585 44.6556 230.783 44.737C231.106 44.225 231.485 43.7435 231.744 43.201C234.652 37.1181 237.369 30.93 240.516 24.976C241.789 22.5686 241.571 20.4561 240.977 18.1335C240.879 17.747 240.627 17.4011 240.281 16.7026C233.709 25.0844 231.348 34.5682 230.189 44.4827L230.192 44.486Z" fill="white"/>
<path d="M36.3374 44.5539C35.0679 44.6081 34.0133 43.991 33.6439 42.6991C33.2778 41.4175 33.2979 40.2205 34.5171 39.1999C39.8337 34.7412 45.1469 30.279 50.3527 25.6948C56.4148 20.3578 62.4065 14.9361 67.4712 8.5785C68.0824 7.80881 68.5224 6.9035 69.2915 5.65911C67.5283 5.65911 66.1479 5.44888 64.8515 5.69301C57.9866 6.99844 51.9816 10.3824 46.1343 14.0138C40.0386 17.8012 34.4835 22.3244 29.5162 27.5427C28.0956 29.0346 26.8697 30.7367 25.7311 32.4592C25.3113 33.0967 25.402 34.0766 25.2408 34.8937C25.1602 35.2972 25.1535 35.8092 24.9049 36.0703C23.3231 37.7352 20.0418 38.1793 18.4162 37.0095C16.7873 35.8398 16.2634 33.0899 17.4657 30.8486C19.6622 26.7561 22.7051 23.3348 26.1006 20.212C31.2795 15.4515 36.9621 11.3657 43.0243 7.8868C49.4694 4.18415 56.1462 0.827356 63.6861 0.067839C65.8456 -0.149166 68.1261 0.200076 70.2722 0.657821C74.9137 1.64452 75.5854 6.16771 74.1177 9.58554C72.3478 13.7086 69.6072 17.1027 66.383 20.1137C62.6718 23.579 58.8867 26.9697 55.1252 30.3841C54.3023 31.1335 53.4392 31.8353 52.6029 32.5542C55.9346 32.3202 59.1957 31.9235 62.4602 31.8964C68.0119 31.8489 72.2101 34.9853 73.1639 39.773C73.7349 42.6449 72.8583 45.3541 71.7634 47.9683C68.8918 54.8073 64.1294 60.2596 58.9337 65.3219C54.4299 69.7061 49.5164 73.6257 43.9714 76.6062C39.6859 78.9085 35.219 80.909 30.3391 81.465C24.4549 82.1364 20.1828 80.4851 18.9637 73.9207C18.6815 72.4051 20.784 69.7332 22.2349 69.9638C23.3533 70.1435 23.9209 70.9403 23.8235 72.1508C23.5615 75.3923 24.5926 76.752 27.7496 76.2535C30.6716 75.7924 33.6539 74.9142 36.2904 73.5749C48.6767 67.2885 58.2855 57.9166 65.2982 45.8728C66.2923 44.1639 66.7424 42.1092 67.2932 40.1731C67.7298 38.6337 66.9271 37.5215 65.446 37.352C63.1487 37.0909 60.7809 36.8061 58.5139 37.0909C54.262 37.6233 50.1176 38.7218 46.3358 40.9258C44.4483 42.0244 37.4122 44.5098 36.3408 44.5539H36.3374Z" fill="white"/>
<path d="M125.442 43.0586C123.625 43.5909 121.963 44.0114 120.357 44.5979C119.921 44.7573 119.662 45.4185 119.326 45.8525C117.345 48.4057 115.511 51.0911 113.345 53.4748C111.017 56.0348 108.011 56.4078 104.901 54.9837C101.845 53.5867 100.726 50.8165 100.569 47.7004C100.176 40.0035 102.349 33.039 106.916 26.868C107.4 26.2136 108.29 25.8711 108.955 25.3421C109.331 25.0404 109.731 24.7013 109.963 24.291C111.131 22.2024 112.797 20.9308 115.249 21.1411C117.848 21.3649 120.156 22.1752 121.365 24.8302C122.997 28.4175 123.031 32.1269 122.268 35.9042C122.003 37.2266 121.731 38.5489 121.462 39.8713C123.686 40.2409 124.529 39.6577 125.069 37.4368C125.13 37.1825 125.301 36.7756 125.459 36.7553C127.152 36.5416 127.027 35.087 127.367 33.9681C128.854 29.0244 130.295 24.0672 131.817 19.1338C132.371 17.3401 136.032 16.4958 137.365 17.8046C137.563 18.0013 137.664 18.4285 137.62 18.7201C137.476 19.6627 137.301 20.6087 137.036 21.5242C135.82 25.7389 134.571 29.9399 133.184 34.6598C134.759 34.0834 135.86 33.6731 136.965 33.2764C141.869 31.5098 141.835 31.5031 143.142 26.356C143.793 23.796 144.539 21.2564 145.345 18.7404C146.06 16.5094 149.563 15.0514 151.582 16.1771C151.971 16.3941 152.216 17.4079 152.085 17.947C151.357 21.0088 150.43 24.0232 149.691 27.0816C148.022 33.9681 146.645 40.9089 146.339 48.0226C146.258 49.8807 146.047 51.7455 146.137 53.5935C146.221 55.2515 145.462 55.9805 144.032 56.306C143.441 56.4383 142.853 56.6044 142.255 56.6756C140.851 56.8418 140.24 56.401 140.095 54.7565C139.585 49.0465 140.146 43.4112 140.821 37.7657C140.848 37.5555 140.764 37.3317 140.673 36.701C137.922 37.9759 135.296 39.1457 132.733 40.4376C132.384 40.6139 132.206 41.3971 132.176 41.9159C131.897 46.412 131.645 50.9114 131.437 55.4143C131.333 57.6284 129.2 59.1169 127.125 58.3947C126.026 58.015 125.476 57.2995 125.472 56.1467C125.459 52.5322 125.452 48.9177 125.445 45.3032C125.445 44.5878 125.445 43.8723 125.445 43.062L125.442 43.0586ZM107.695 51.1861C110.486 49.3992 112.189 47.0223 113.6 44.3945C113.734 44.147 113.65 43.5502 113.452 43.3841C111.679 41.9227 109.855 40.5223 107.961 39.0372C107 42.9094 105.959 46.8697 107.695 51.1827V51.1861ZM115.612 39.0101C118.003 35.382 118.396 28.3294 116.314 26.4543C113.257 29.3771 112.868 36.328 115.612 39.0101Z" fill="white"/>
<path d="M153.219 61.6566C160.648 61.6566 168.084 61.4565 175.503 61.7244C180.984 61.921 186.445 62.7145 191.913 63.2773C192.568 63.3451 193.26 63.518 193.827 63.8334C194.556 64.2403 196.034 64.1419 195.604 65.5626C195.221 66.8274 194.153 67.3156 192.806 67.1359C190.932 66.885 189.055 66.5697 187.171 66.4985C182.593 66.3188 178.009 66.0814 173.434 66.2069C167.379 66.373 161.32 66.7426 155.281 67.258C149.746 67.7293 144.215 68.3532 138.72 69.1839C129.656 70.5571 120.587 71.9575 111.59 73.7173C105.592 74.8871 99.6234 76.4095 93.8064 78.2913C86.2732 80.7259 78.9146 83.6995 71.4586 86.3782C70.2193 86.8223 68.8725 87.1479 67.5694 87.1716C65.5341 87.2055 63.0891 84.8659 63.1294 82.8417C63.1495 81.9262 63.7642 80.6682 64.503 80.1901C66.5081 78.8949 68.6441 77.7217 70.8675 76.8706C80.4192 73.2222 90.2833 70.6487 100.315 68.7872C107.912 67.3767 115.519 65.9967 123.167 64.9184C129.988 63.9555 136.87 63.4062 143.728 62.7178C146.885 62.4025 150.049 62.1855 153.212 61.9244C153.212 61.8363 153.219 61.7447 153.222 61.6566H153.219Z" fill="white"/>
<path d="M83.7903 31.676C86.1916 29.5127 88.5796 27.068 91.263 25.02C94.2085 22.772 97.8357 23.2263 100.046 25.7253C101.769 27.6749 101.859 29.967 100.973 32.2117C100.193 34.1749 99.0616 36.0059 98.0104 37.8504C97.3689 38.9761 96.8617 39.8679 97.5973 41.3259C99.0414 44.1944 98.1212 47.1783 96.7744 49.7382C93.3756 56.2009 88.1396 60.697 81.2646 63.1112C77.9397 64.2776 75.404 62.3652 75.357 58.9169C75.3099 55.5465 74.9539 52.1728 75.058 48.8092C75.3334 40.0137 76.8448 31.4115 79.535 23.0331C79.6223 22.7652 79.7331 22.5041 79.797 22.2295C80.4552 19.4999 82.9741 18.3607 85.4427 19.6864C86.5577 20.2866 86.8029 21.1478 86.4301 22.3787C85.4729 25.549 84.6165 28.7498 83.7903 31.6793V31.676ZM92.1161 43.2416C91.4175 43.6689 90.7257 44.1097 90.0137 44.5132C89.2848 44.9234 88.546 45.3168 87.7937 45.6762C85.3721 46.829 83.8406 46.1814 83.0447 43.4281C80.65 48.0564 81.0195 52.8475 80.9053 57.6182C86.0203 53.8817 90.4839 49.7179 92.1161 43.2416ZM95.5082 28.0343C90.3294 30.7537 87.535 34.9412 85.221 39.6238C87.2496 38.3116 90.0069 38.5353 91.5418 36.267C93.164 33.8697 95.0213 31.6081 95.5082 28.0343Z" fill="white"/>
<path d="M233.127 104.868C233.003 104.671 232.983 104.61 232.942 104.579C227.797 100.941 228.247 96.0179 230.141 90.9997C232.318 85.2321 236.042 80.6072 241.251 77.2809C245.705 74.4361 249.255 75.7042 251.189 80.658C251.559 81.6074 252.398 82.4856 253.231 83.1061C254.716 84.2115 254.954 84.6659 253.876 86.2391C250.259 91.5049 246.575 96.7232 242.958 101.989C241.48 104.139 241.547 104.142 243.811 105.492C246.857 107.306 249.658 109.574 249.1 113.528C248.791 115.725 247.619 118.017 246.242 119.797C243.468 123.388 239.552 125.588 235.092 125.931C232.643 126.117 230.031 125.025 228.247 122.96C226.652 121.113 226.648 118.742 227.458 116.715C228.946 112.975 230.86 109.411 232.6 105.776C232.744 105.478 232.936 105.203 233.13 104.871L233.127 104.868ZM235.596 100.504C237.977 97.2081 240.2 94.1157 242.444 91.037C243.898 89.0433 245.413 87.0936 246.847 85.0829C247.767 83.7944 247.327 82.411 246.538 81.3464C246.353 81.0954 244.724 81.5905 244.036 82.1127C239.71 85.4186 236.563 89.6468 234.863 94.882C234.262 96.7368 234.212 98.6152 235.592 100.504H235.596ZM239.052 108.102C237.621 110.818 236.224 113.307 234.994 115.877C234.447 117.02 234.115 118.305 233.906 119.56C233.715 120.719 234.299 121.54 235.565 121.051C238.79 119.81 241.44 117.803 242.914 114.558C243.794 112.626 243.314 111.076 241.641 109.798C240.936 109.259 240.157 108.818 239.052 108.099V108.102Z" fill="white"/>
<path d="M214.534 31.7709C211.514 33.0763 208.673 34.1139 206.06 35.5651C205.361 35.9516 205.157 37.5995 205.079 38.6947C204.871 41.665 204.848 44.6488 204.77 47.6258C204.72 49.5483 204.176 50.2095 202.396 50.4401C200.707 50.6605 199.148 49.806 198.984 48.2667C198.735 45.9305 198.57 43.5536 198.695 41.2106C198.879 37.6911 199.031 34.1206 199.763 30.696C200.851 25.6032 202.419 20.6121 203.823 15.5871C204.102 14.5868 204.404 13.5187 204.989 12.6948C206.198 10.9994 208.891 10.9893 210.033 12.705C210.477 13.3729 210.604 14.5258 210.386 15.3226C209.304 19.2728 208.052 23.1755 206.883 27.1053C206.728 27.6241 206.712 28.1835 206.607 28.8752C209.509 27.7733 212.223 26.7899 214.89 25.6846C215.346 25.4947 215.77 24.8369 215.907 24.3147C216.995 20.2493 218.043 16.1703 219.041 12.0811C219.763 9.11083 221.818 7.95121 224.364 9.14134C225.771 9.79914 226.184 10.9418 225.852 12.3456C225.388 14.3156 224.801 16.255 224.284 18.2149C223.928 19.5711 223.528 20.9206 223.286 22.3007C223.064 23.5654 222.839 24.7589 223.803 26.0406C224.485 26.9459 224.448 28.4005 224.74 29.6449C221.479 30.0281 221.519 30.0349 221.127 33.0085C220.176 40.2103 219.31 47.419 219.659 54.6988C219.763 56.8689 220.25 59.0186 220.572 61.2564C218.786 62.6093 215.165 62.0058 214.194 59.873C213.721 58.8287 213.892 57.4995 213.684 56.3162C212.811 51.4031 213.006 46.5001 213.647 41.5768C214.05 38.4675 214.221 35.3277 214.534 31.7641V31.7709Z" fill="white"/>
<path d="M170.826 34.5581C168.643 38.3896 166.675 42.0312 164.512 45.5541C163.508 47.1918 162.278 48.7651 160.878 50.0637C159.111 51.7082 156.858 51.498 154.698 50.8639C152.878 50.3316 152.3 48.7956 152.062 47.1003C151.427 42.55 152.011 38.0742 153.536 33.8223C155.296 28.9193 157.348 24.1113 159.491 19.3609C160.814 16.428 163.313 15.777 166.52 17.2723C166.282 17.9063 166.087 18.5845 165.788 19.2117C162.282 26.4882 159.649 34.0529 158.416 42.0719C158.292 42.8788 158.507 43.7367 158.564 44.5708C158.722 44.6454 158.883 44.72 159.041 44.798C160.938 41.865 162.91 38.9762 164.717 35.9889C168.458 29.7975 172.105 23.5451 175.81 17.3333C176.784 15.699 180.28 14.7665 181.744 15.8753C182.131 16.1669 182.134 17.2994 181.966 17.9504C181.053 21.4767 179.87 24.942 179.081 28.4955C177.808 34.2326 177.321 40.0815 178.181 45.9169C178.53 48.2904 178.561 51.081 181.308 52.4271C181.352 52.4474 181.076 53.6748 180.68 53.9868C178.191 55.9602 174.43 54.8548 172.972 51.7591C171.514 48.6668 170.964 45.3473 170.839 41.96C170.752 39.5933 170.822 37.2232 170.822 34.5547L170.826 34.5581Z" fill="white"/>
<path d="M321 88.5991C320.685 98.0591 317.813 106.153 311.778 112.982C308.292 116.925 304.033 118.529 298.861 116.762C297.145 116.176 296.08 115.036 295.704 113.182C295.496 112.154 294.998 111.188 294.649 110.188C292.92 105.224 293.302 100.185 294.585 95.2652C296.097 89.4671 298.528 84.0691 302.29 79.3052C305.628 75.077 309.937 74.314 314.609 75.7687C318.471 76.9724 319.922 80.4885 320.591 84.2522C320.866 85.795 320.89 87.3818 320.997 88.6059L321 88.5991ZM300.617 106.136C300.873 107.377 301.067 109.181 301.635 110.852C302.478 113.331 303.277 113.446 305.098 111.629C307.852 108.882 309.564 105.461 311.086 101.952C313.007 97.5268 314.438 92.9358 314.784 88.0803C314.978 85.3237 315.039 82.5636 313.292 80.1562C312.621 79.2306 311.926 79.0576 311.089 79.8951C309.87 81.1226 308.376 82.1873 307.492 83.6283C303.375 90.3385 301.306 97.7438 300.617 106.139V106.136Z" fill="white"/>
<path d="M294.112 91.6439C293.853 98.5983 291.435 104.739 287.791 110.462C285.551 113.985 282.871 117.244 278.76 118.315C272.493 119.95 267.908 117.237 267.105 110.283C266.273 103.04 267.76 96.1739 270.548 89.6027C272.056 86.0493 273.984 82.6315 276.949 80.0037C279.972 77.325 283.499 76.5892 287.227 77.915C291.119 79.3018 293.05 82.4755 293.655 86.4833C293.913 88.199 293.967 89.9486 294.108 91.6439H294.112ZM273.917 107.095C274.172 108.591 274.32 110.218 274.743 111.775C275.529 114.67 276.446 114.887 278.521 112.815C278.877 112.459 279.21 112.076 279.515 111.676C284.033 105.736 286.619 98.9475 287.677 91.6134C288.026 89.1789 287.811 86.5511 287.297 84.1301C286.609 80.892 285.168 80.6343 282.921 83.0994C276.775 89.8333 274.901 98.205 273.923 107.092L273.917 107.095Z" fill="white"/>
<path d="M113.285 121.021C113.312 111.046 116.409 102.894 122.135 95.7331C122.733 94.9837 123.633 94.2276 124.52 94.0208C126.723 93.502 128.993 93.1087 131.25 93.0104C134.78 92.8578 137.651 95.3974 138.434 99.5612C140.543 110.801 137.809 120.892 130.565 129.603C128.204 132.441 124.926 133.824 120.986 133.387C117.275 132.977 114.017 128.681 113.514 124.683C113.332 123.238 113.329 121.774 113.285 121.024V121.021ZM130.575 97.147C129.436 98.0422 128.15 98.6796 127.388 99.7138C122.192 106.756 120.55 114.88 120.781 123.462C120.832 125.293 121.164 127.273 123.025 128.976C124.207 127.657 125.665 126.565 126.397 125.103C128.123 121.648 129.893 118.129 130.918 114.429C131.905 110.862 132.133 107.048 132.399 103.321C132.546 101.226 132.053 99.1001 130.572 97.147H130.575Z" fill="white"/>
<path d="M75.8062 110.896C75.2655 119.553 73.5324 127.843 67.9371 134.811C66.8288 136.191 65.3779 137.293 64.0647 138.5C60.2494 142.003 52.34 140.084 50.6641 133.736C49.277 128.484 49.5692 123.255 50.9496 118.085C52.4643 112.402 54.5399 106.99 58.1436 102.206C62.2746 96.7198 70.5265 97.3539 73.9858 103.088C75.43 105.481 75.9842 108.085 75.8062 110.896ZM59.3191 135.974C60.8371 133.892 62.4862 132.051 63.655 129.942C66.5937 124.646 68.2494 118.861 69.2134 112.9C69.6567 110.15 70.0799 107.339 69.0152 104.586C68.3502 102.871 67.168 102.338 65.8078 103.549C64.5819 104.637 63.4333 105.976 62.6978 107.431C61.4114 109.974 60.4207 112.676 59.3862 115.345C57.7271 119.621 56.8976 124.096 56.8438 128.667C56.8136 131.135 56.8169 133.753 59.3157 135.974H59.3191Z" fill="white"/>
<path d="M88.0422 124.378C88.1665 117.969 88.5796 112.934 90.7022 108.35C92.3176 104.864 94.279 101.446 96.6266 98.4287C99.0717 95.2855 102.756 95.0787 106.424 96.0213C110.138 96.9775 111.525 99.9613 112.274 103.332C113.799 110.194 112.422 116.772 109.809 123.079C108.644 125.897 106.958 128.542 105.214 131.061C102.541 134.923 98.6283 136.123 94.1715 135.272C93.0296 135.055 91.8441 134.174 91.0246 133.275C88.3881 130.379 87.9146 126.765 88.0422 124.374V124.378ZM97.1439 131.681C98.5914 130.057 100.019 128.85 100.949 127.334C103.377 123.381 104.912 119.017 105.799 114.457C106.581 110.428 107.374 106.349 106.242 102.26C105.994 101.365 105.386 100.27 104.64 99.924C104.19 99.7172 103.011 100.639 102.427 101.297C99.1657 104.956 97.2849 109.299 96.5628 114.145C96.059 117.525 95.5586 120.916 95.2362 124.317C95.0112 126.69 95.4982 128.989 97.1439 131.681Z" fill="white"/>
<path d="M170.047 126.1C163.901 126.829 157.929 127.674 152.132 129.518C151.094 129.847 150.702 130.512 150.88 131.566C150.974 132.119 151.115 132.671 151.142 133.227C151.185 134.018 152.525 134.977 151.205 135.537C150.016 136.038 148.629 135.825 147.733 134.641C147.34 134.123 147.115 133.461 146.883 132.838C146.456 131.685 146.037 130.525 145.694 129.342C145.16 127.501 145.442 126.117 147.272 125.761C149.224 125.381 150.342 124.212 151.135 122.313C153.99 115.467 157.042 108.709 159.978 101.901C160.351 101.04 160.623 100.073 160.67 99.1441C160.723 98.0659 161.197 97.7777 162.033 98.1439C162.893 98.5203 163.528 98.6694 164.488 98.1676C165.016 97.893 166.188 98.4423 166.846 98.9271C169.016 100.534 168.767 103.091 169.053 105.4C169.654 110.242 170.215 115.091 170.749 119.943C170.853 120.882 171.283 121.106 172.153 121.17C175.471 121.428 176.73 123.445 175.605 126.605C174.91 128.562 174.171 130.505 173.479 132.461C173.069 133.621 172.153 133.794 171.179 133.597C170.148 133.39 168.949 133.078 169.11 131.647C169.308 129.877 169.694 128.128 170.047 126.097V126.1ZM162.534 107.295C160.189 112.778 158.016 117.857 155.682 123.313C158.584 122.754 160.918 122.259 163.273 121.875C164.247 121.716 164.438 121.265 164.314 120.383C163.723 116.172 163.165 111.958 162.534 107.295Z" fill="white"/>
<path d="M217.119 96.5469C214.815 98.6966 212.646 100.694 210.51 102.725C208.874 104.281 207.443 104.522 205.861 103.427C204.605 102.559 204.518 101.85 205.616 100.734C208.686 97.6116 211.843 94.5735 214.835 91.3761C216.703 89.3789 218.453 87.2394 220.035 85.0049C221.089 83.5164 221.818 81.7736 222.574 80.0884C223.161 78.7796 224.179 78.3456 225.415 78.5321C226.916 78.7559 228.438 79.1899 229.119 80.77C229.301 81.1938 229.076 81.8753 228.881 82.3771C225.358 91.549 223.134 101.057 221.801 110.778C221.26 114.721 220.958 118.702 220.666 122.676C220.552 124.239 220.733 125.829 220.851 127.402C220.948 128.684 220.266 129.226 219.171 129.501C216.196 130.247 214.345 128.864 214.201 125.778C213.751 116.342 214.95 107.068 216.908 97.8693C216.988 97.4963 217.029 97.1131 217.119 96.5435V96.5469Z" fill="white"/>
<path d="M39.2121 114.151C37.2406 115.887 35.3833 117.491 33.563 119.139C32.2733 120.309 30.9064 119.865 29.7107 119.19C28.7771 118.664 28.5487 117.715 29.5797 116.837C34.0735 113.002 37.9996 108.638 41.2876 103.715C42.3657 102.101 43.2625 100.344 44.0719 98.5745C44.6294 97.3539 45.5698 97.2928 46.5539 97.4488C47.2994 97.5675 48.0316 97.954 48.7033 98.3372C50.6916 99.4697 50.5707 99.8901 49.9124 102.128C48.5522 106.756 47.3465 111.446 46.3423 116.169C44.9485 122.713 44.045 129.349 44.1122 136.066C44.1323 138.019 44.4245 139.989 44.7973 141.911C44.9485 142.681 45.6571 143.335 46.1139 144.044C42.2919 146.133 38.893 144.725 38.097 140.704C37.029 135.299 37.2507 129.884 37.9963 124.463C38.4597 121.089 38.8023 117.698 39.2154 114.158L39.2121 114.151Z" fill="white"/>
<path d="M175.156 112.558C175.405 107.217 176.496 102.704 179.267 98.7881C181.205 96.0451 183.113 94.9533 186.77 95.9332C187.237 96.0586 187.761 96.0688 188.245 96.0078C191.835 95.5636 193.618 96.7876 194.223 100.406C195.472 107.858 193.531 114.443 188.543 120.048C183.929 125.236 176.879 121.869 175.865 117.003C175.522 115.355 175.331 113.673 175.156 112.561V112.558ZM182.884 117.549C183.616 116.857 183.929 116.616 184.174 116.321C187.257 112.619 188.711 108.252 189.145 103.515C189.276 102.064 189.235 100.07 187.758 99.768C186.911 99.5951 185.336 101.185 184.671 102.328C182.646 105.797 181.991 109.689 182.132 113.69C182.172 114.847 182.565 115.989 182.881 117.552L182.884 117.549Z" fill="white"/>
<path d="M12.2943 116.769C8.89886 120.685 7.43453 125.005 6.57138 129.488C6.15828 131.63 6.31277 133.963 6.62848 136.147C6.91059 138.113 7.98533 138.493 9.51347 137.286C11.0248 136.093 12.3179 134.608 13.6546 133.2C14.1516 132.678 14.3733 131.807 14.9409 131.461C15.5723 131.074 16.5093 130.878 17.2045 131.051C17.5606 131.139 17.9569 132.258 17.8628 132.827C16.9191 138.48 9.65117 142.793 4.30772 140.996C1.70484 140.121 0.401728 138.212 0.146478 135.618C-0.370738 130.308 0.462182 125.168 2.95758 120.451C4.09613 118.302 5.57389 116.254 7.24309 114.487C9.24479 112.368 12.9258 112.134 15.4749 113.528C17.2348 114.49 18.3162 116.769 17.9535 119.041C17.5807 121.36 16.7411 123.506 14.2524 124.191C13.3825 124.432 12.2943 124.001 11.3506 123.717C11.1894 123.669 11.1054 122.75 11.2599 122.343C11.8846 120.692 12.6907 119.095 12.2977 116.769H12.2943Z" fill="white"/>
<path d="M262.823 106.831C262.8 109.303 260.308 111.897 257.933 111.924C255.985 111.944 254.743 110.666 254.746 108.645C254.746 105.424 256.482 103.132 258.867 103.203C261.215 103.274 262.844 104.766 262.827 106.834L262.823 106.831Z" fill="white"/>
<path d="M79.582 110.116C80.1496 106.051 82.1043 103.678 86.1178 105.481C86.7391 105.759 87.3168 106.502 87.5787 107.163C88.2639 108.896 87.4377 110.384 86.3629 111.639C85.2345 112.954 83.8138 113.877 81.9465 113.49C80.3747 113.165 79.5787 111.988 79.582 110.116Z" fill="white"/>
<path d="M84.7788 124.625C84.7587 127.673 81.4068 130.498 78.8241 129.715C77.6654 129.362 77.0777 128.701 76.8661 127.501C76.3824 124.741 78.0248 121.747 80.322 121.343C82.7133 120.923 84.7956 122.455 84.7788 124.625Z" fill="white"/>
<path d="M262.245 87.1851C264.835 87.1716 266.46 88.4227 266.497 90.4639C266.544 92.9731 264.012 95.611 261.51 95.6619C259.508 95.7026 258.255 94.5938 258.44 92.5323C258.719 89.4298 259.924 86.7986 262.245 87.1851Z" fill="white"/>
</g>
<defs>
<clipPath id="clip0_183_49215">
<rect width="321" height="145" fill="white"/>
</clipPath>
</defs>
</svg>
